<?xml version="1.0" encoding="utf-8"?>
<!-- Generator: Adobe Illustrator 27.7.0, SVG Export Plug-In . SVG Version: 6.00 Build 0)  -->
<svg version="1.2" baseProfile="tiny" xmlns="http://www.w3.org/2000/svg" xmlns:xlink="http://www.w3.org/1999/xlink" x="0px"
	 y="0px" viewBox="0 0 650 450" overflow="visible" xml:space="preserve">
<g id="exportSvg">
	<rect x="25" y="25" fill="#FFFFFF" width="600" height="400"/>
	<g>
		<g id="__svelte-dw-svg">
			<g id="chart-svg">
				<rect x="451.188" y="125" fill="#D13F99" fill-opacity="0.11" width="166" height="247"/>
				<image width="600" height="307" xlink:href="DC87BB6AEB422789.png"  transform="matrix(1 0 0 1 25 85)">
				</image>
				<image width="16" height="20" xlink:href="DC87BB6AEB42278A.png"  transform="matrix(1 0 0 1 25 84)">
				</image>
				<rect x="45" y="87" fill="#FFFFFF" fill-opacity="0.9" width="319.906" height="16"/>
				<text transform="matrix(1 0 0 1 44 99)" fill="#181818" font-family="'Charter-Roman'" font-size="14px">P</text>
				<text transform="matrix(1 0 0 1 51.0479 99)" fill="#181818" font-family="'Charter-Roman'" font-size="14px">e</text>
				<text transform="matrix(1 0 0 1 57.9248 99)" fill="#181818" font-family="'Charter-Roman'" font-size="14px">n</text>
				<text transform="matrix(1 0 0 1 65.875 99)" fill="#181818" font-family="'Charter-Roman'" font-size="14px">a</text>
				<text transform="matrix(1 0 0 1 72.9707 99)" fill="#181818" font-family="'Charter-Roman'" font-size="14px">l</text>
				<text transform="matrix(1 0 0 1 76.9219 99)" fill="#181818" font-family="'Charter-Roman'" font-size="14px">t</text>
				<text transform="matrix(1 0 0 1 81.5977 99)" fill="#181818" font-family="'Charter-Roman'" font-size="14px">i</text>
				<text transform="matrix(1 0 0 1 85.5146 99)" fill="#181818" font-family="'Charter-Roman'" font-size="14px">e</text>
				<text transform="matrix(1 0 0 1 92.3916 99)" fill="#181818" font-family="'Charter-Roman'" font-size="14px">s</text>
				<text transform="matrix(1 0 0 1 97.9902 99)" fill="#181818" font-family="'Charter-Roman'" font-size="14px"> </text>
				<text transform="matrix(1 0 0 1 101.8799 99)" fill="#181818" font-family="'Charter-Roman'" font-size="14px">o</text>
				<text transform="matrix(1 0 0 1 109.4268 99)" fill="#181818" font-family="'Charter-Roman'" font-size="14px">f</text>
				<text transform="matrix(1 0 0 1 113.918 99)" fill="#181818" font-family="'Charter-Roman'" font-size="14px"> </text>
				<text transform="matrix(1 0 0 1 117.8076 99)" fill="#181818" font-family="'Charter-Roman'" font-size="14px">$</text>
				<text transform="matrix(1 0 0 1 125.5938 99)" fill="#181818" font-family="'Charter-Roman'" font-size="14px">4</text>
				<text transform="matrix(1 0 0 1 133.3799 99)" fill="#181818" font-family="'Charter-Roman'" font-size="14px">0</text>
				<text transform="matrix(1 0 0 1 141.166 99)" fill="#181818" font-family="'Charter-Roman'" font-size="14px">,</text>
				<text transform="matrix(1 0 0 1 145.0557 99)" fill="#181818" font-family="'Charter-Roman'" font-size="14px">0</text>
				<text transform="matrix(1 0 0 1 152.8418 99)" fill="#181818" font-family="'Charter-Roman'" font-size="14px">0</text>
				<text transform="matrix(1 0 0 1 160.6279 99)" fill="#181818" font-family="'Charter-Roman'" font-size="14px">0</text>
				<text transform="matrix(1 0 0 1 168.4141 99)" fill="#181818" font-family="'Charter-Roman'" font-size="14px"> </text>
				<text transform="matrix(1 0 0 1 172.3037 99)" fill="#181818" font-family="'Charter-Roman'" font-size="14px">o</text>
				<text transform="matrix(1 0 0 1 179.8506 99)" fill="#181818" font-family="'Charter-Roman'" font-size="14px">r</text>
				<text transform="matrix(1 0 0 1 185.1963 99)" fill="#181818" font-family="'Charter-Roman'" font-size="14px"> </text>
				<text transform="matrix(1 0 0 1 189.0859 99)" fill="#181818" font-family="'Charter-Roman'" font-size="14px">m</text>
				<text transform="matrix(1 0 0 1 200.8848 99)" fill="#181818" font-family="'Charter-Roman'" font-size="14px">o</text>
				<text transform="matrix(1 0 0 1 208.4316 99)" fill="#181818" font-family="'Charter-Roman'" font-size="14px">r</text>
				<text transform="matrix(1 0 0 1 213.7773 99)" fill="#181818" font-family="'Charter-Roman'" font-size="14px">e</text>
				<text transform="matrix(1 0 0 1 220.6543 99)" fill="#181818" font-family="'Charter-Roman'" font-size="14px"> </text>
				<text transform="matrix(1 0 0 1 224.5439 99)" fill="#181818" font-family="'Charter-Roman'" font-size="14px">p</text>
				<text transform="matrix(1 0 0 1 232.2549 99)" fill="#181818" font-family="'Charter-Roman'" font-size="14px">e</text>
				<text transform="matrix(1 0 0 1 239.1318 99)" fill="#181818" font-family="'Charter-Roman'" font-size="14px">r</text>
				<text transform="matrix(1 0 0 1 244.4775 99)" fill="#181818" font-family="'Charter-Roman'" font-size="14px"> </text>
				<text transform="matrix(1 0 0 1 248.3672 99)" fill="#181818" font-family="'Charter-Roman'" font-size="14px">1</text>
				<text transform="matrix(1 0 0 1 256.1533 99)" fill="#181818" font-family="'Charter-Roman'" font-size="14px"> </text>
				<text transform="matrix(1 0 0 1 260.043 99)" fill="#181818" font-family="'Charter-Roman'" font-size="14px">m</text>
				<text transform="matrix(1 0 0 1 271.8418 99)" fill="#181818" font-family="'Charter-Roman'" font-size="14px">i</text>
				<text transform="matrix(1 0 0 1 275.7588 99)" fill="#181818" font-family="'Charter-Roman'" font-size="14px">l</text>
				<text transform="matrix(1 0 0 1 279.71 99)" fill="#181818" font-family="'Charter-Roman'" font-size="14px">l</text>
				<text transform="matrix(1 0 0 1 283.6611 99)" fill="#181818" font-family="'Charter-Roman'" font-size="14px">i</text>
				<text transform="matrix(1 0 0 1 287.5781 99)" fill="#181818" font-family="'Charter-Roman'" font-size="14px">o</text>
				<text transform="matrix(1 0 0 1 295.125 99)" fill="#181818" font-family="'Charter-Roman'" font-size="14px">n</text>
				<text transform="matrix(1 0 0 1 303.0752 99)" fill="#181818" font-family="'Charter-Roman'" font-size="14px"> </text>
				<text transform="matrix(1 0 0 1 306.9648 99)" fill="#181818" font-family="'Charter-Roman'" font-size="14px">r</text>
				<text transform="matrix(1 0 0 1 312.3105 99)" fill="#181818" font-family="'Charter-Roman'" font-size="14px">e</text>
				<text transform="matrix(1 0 0 1 319.1875 99)" fill="#181818" font-family="'Charter-Roman'" font-size="14px">s</text>
				<text transform="matrix(1 0 0 1 324.7861 99)" fill="#181818" font-family="'Charter-Roman'" font-size="14px">i</text>
				<text transform="matrix(1 0 0 1 328.7031 99)" fill="#181818" font-family="'Charter-Roman'" font-size="14px">d</text>
				<text transform="matrix(1 0 0 1 336.6123 99)" fill="#181818" font-family="'Charter-Roman'" font-size="14px">e</text>
				<text transform="matrix(1 0 0 1 343.4893 99)" fill="#181818" font-family="'Charter-Roman'" font-size="14px">n</text>
				<text transform="matrix(1 0 0 1 351.4395 99)" fill="#181818" font-family="'Charter-Roman'" font-size="14px">t</text>
				<text transform="matrix(1 0 0 1 356.1152 99)" fill="#181818" font-family="'Charter-Roman'" font-size="14px">s</text>
				<image width="600" height="307" xlink:href="DC87BB6AEB422788.png"  transform="matrix(1 0 0 1 25 85)">
				</image>
				<line fill="none" stroke="#EF119B" stroke-miterlimit="10" x1="451.188" y1="125" x2="451.188" y2="372"/>
				<line fill="none" stroke="#EF119B" stroke-miterlimit="10" x1="617.188" y1="125" x2="617.188" y2="372"/>
			</g>
			<text transform="matrix(1 0 0 1 25 47)" font-family="'AvenirNext-DemiBold'" font-size="22px">E</text>
			<text transform="matrix(1 0 0 1 38.4199 47)" font-family="'AvenirNext-DemiBold'" font-size="22px">m</text>
			<text transform="matrix(1 0 0 1 57.9995 47)" font-family="'AvenirNext-DemiBold'" font-size="22px">p</text>
			<text transform="matrix(1 0 0 1 71.9258 47)" font-family="'AvenirNext-DemiBold'" font-size="22px">l</text>
			<text transform="matrix(1 0 0 1 77.8213 47)" font-family="'AvenirNext-DemiBold'" font-size="22px">o</text>
			<text transform="matrix(1 0 0 1 91.2412 47)" font-family="'AvenirNext-DemiBold'" font-size="22px">y</text>
			<text transform="matrix(1 0 0 1 102.5269 47)" font-family="'AvenirNext-DemiBold'" font-size="22px">e</text>
			<text transform="matrix(1 0 0 1 115.1543 47)" font-family="'AvenirNext-DemiBold'" font-size="22px">r</text>
			<text transform="matrix(1 0 0 1 123.1626 47)" font-family="'AvenirNext-DemiBold'" font-size="22px">s</text>
			<text transform="matrix(1 0 0 1 132.9302 47)" font-family="'AvenirNext-DemiBold'" font-size="22px"> </text>
			<text transform="matrix(1 0 0 1 138.4302 47)" font-family="'AvenirNext-DemiBold'" font-size="22px">h</text>
			<text transform="matrix(1 0 0 1 151.2783 47)" font-family="'AvenirNext-DemiBold'" font-size="22px">a</text>
			<text transform="matrix(1 0 0 1 163.3779 47)" font-family="'AvenirNext-DemiBold'" font-size="22px">v</text>
			<text transform="matrix(1 0 0 1 174.6636 47)" font-family="'AvenirNext-DemiBold'" font-size="22px">e</text>
			<text transform="matrix(1 0 0 1 187.2915 47)" font-family="'AvenirNext-DemiBold'" font-size="22px"> </text>
			<text transform="matrix(1 0 0 1 192.7915 47)" font-family="'AvenirNext-DemiBold'" font-size="22px">b</text>
			<text transform="matrix(1 0 0 1 206.7612 47)" font-family="'AvenirNext-DemiBold'" font-size="22px">e</text>
			<text transform="matrix(1 0 0 1 219.3892 47)" font-family="'AvenirNext-DemiBold'" font-size="22px">e</text>
			<text transform="matrix(1 0 0 1 232.0166 47)" font-family="'AvenirNext-DemiBold'" font-size="22px">n</text>
			<text transform="matrix(1 0 0 1 244.8203 47)" font-family="'AvenirNext-DemiBold'" font-size="22px"> </text>
			<text transform="matrix(1 0 0 1 250.3203 47)" font-family="'AvenirNext-DemiBold'" font-size="22px">c</text>
			<text transform="matrix(1 0 0 1 261.0562 47)" font-family="'AvenirNext-DemiBold'" font-size="22px">o</text>
			<text transform="matrix(1 0 0 1 274.4761 47)" font-family="'AvenirNext-DemiBold'" font-size="22px">n</text>
			<text transform="matrix(1 0 0 1 287.2798 47)" font-family="'AvenirNext-DemiBold'" font-size="22px">s</text>
			<text transform="matrix(1 0 0 1 297.0474 47)" font-family="'AvenirNext-DemiBold'" font-size="22px">i</text>
			<text transform="matrix(1 0 0 1 302.9429 47)" font-family="'AvenirNext-DemiBold'" font-size="22px">d</text>
			<text transform="matrix(1 0 0 1 316.8906 47)" font-family="'AvenirNext-DemiBold'" font-size="22px">e</text>
			<text transform="matrix(1 0 0 1 329.5186 47)" font-family="'AvenirNext-DemiBold'" font-size="22px">r</text>
			<text transform="matrix(1 0 0 1 337.2407 47)" font-family="'AvenirNext-DemiBold'" font-size="22px">a</text>
			<text transform="matrix(1 0 0 1 349.3403 47)" font-family="'AvenirNext-DemiBold'" font-size="22px">b</text>
			<text transform="matrix(1 0 0 1 363.3105 47)" font-family="'AvenirNext-DemiBold'" font-size="22px">l</text>
			<text transform="matrix(1 0 0 1 369.2061 47)" font-family="'AvenirNext-DemiBold'" font-size="22px">y</text>
			<text transform="matrix(1 0 0 1 380.4922 47)" font-family="'AvenirNext-DemiBold'" font-size="22px"> </text>
			<text transform="matrix(1 0 0 1 385.9922 47)" font-family="'AvenirNext-DemiBold'" font-size="22px">m</text>
			<text transform="matrix(1 0 0 1 405.5723 47)" font-family="'AvenirNext-DemiBold'" font-size="22px">o</text>
			<text transform="matrix(1 0 0 1 418.9912 47)" font-family="'AvenirNext-DemiBold'" font-size="22px">r</text>
			<text transform="matrix(1 0 0 1 426.6035 47)" font-family="'AvenirNext-DemiBold'" font-size="22px">e</text>
			<text transform="matrix(1 0 0 1 439.2314 47)" font-family="'AvenirNext-DemiBold'" font-size="22px"> </text>
			<text transform="matrix(1 0 0 1 444.7314 47)" font-family="'AvenirNext-DemiBold'" font-size="22px">l</text>
			<text transform="matrix(1 0 0 1 450.627 47)" font-family="'AvenirNext-DemiBold'" font-size="22px">a</text>
			<text transform="matrix(1 0 0 1 462.7266 47)" font-family="'AvenirNext-DemiBold'" font-size="22px">x</text>
			<text transform="matrix(1 0 0 1 474.541 47)" font-family="'AvenirNext-DemiBold'" font-size="22px"> </text>
			<text transform="matrix(1 0 0 1 480.041 47)" font-family="'AvenirNext-DemiBold'" font-size="22px">a</text>
			<text transform="matrix(1 0 0 1 492.1406 47)" font-family="'AvenirNext-DemiBold'" font-size="22px">b</text>
			<text transform="matrix(1 0 0 1 506.1104 47)" font-family="'AvenirNext-DemiBold'" font-size="22px">o</text>
			<text transform="matrix(1 0 0 1 519.5303 47)" font-family="'AvenirNext-DemiBold'" font-size="22px">u</text>
			<text transform="matrix(1 0 0 1 532.334 47)" font-family="'AvenirNext-DemiBold'" font-size="22px">t</text>
			<text transform="matrix(1 0 0 1 539.8135 47)" font-family="'AvenirNext-DemiBold'" font-size="22px"> </text>
			<text transform="matrix(1 0 0 1 545.3135 47)" font-family="'AvenirNext-DemiBold'" font-size="22px">w</text>
			<text transform="matrix(1 0 0 1 563.001 47)" font-family="'AvenirNext-DemiBold'" font-size="22px">o</text>
			<text transform="matrix(1 0 0 1 576.4209 47)" font-family="'AvenirNext-DemiBold'" font-size="22px">r</text>
			<text transform="matrix(1 0 0 1 584.4287 47)" font-family="'AvenirNext-DemiBold'" font-size="22px">k</text>
			<text transform="matrix(1 0 0 1 595.9795 47)" font-family="'AvenirNext-DemiBold'" font-size="22px">e</text>
			<text transform="matrix(1 0 0 1 608.6074 47)" font-family="'AvenirNext-DemiBold'" font-size="22px">r</text>
			<text transform="matrix(1 0 0 1 616.6152 47)" font-family="'AvenirNext-DemiBold'" font-size="22px"> </text>
			<text transform="matrix(1 0 0 1 25 72)" font-family="'AvenirNext-DemiBold'" font-size="22px">s</text>
			<text transform="matrix(1 0 0 1 34.7676 72)" font-family="'AvenirNext-DemiBold'" font-size="22px">a</text>
			<text transform="matrix(1 0 0 1 46.8672 72)" font-family="'AvenirNext-DemiBold'" font-size="22px">f</text>
			<text transform="matrix(1 0 0 1 53.9951 72)" font-family="'AvenirNext-DemiBold'" font-size="22px">e</text>
			<text transform="matrix(1 0 0 1 66.623 72)" font-family="'AvenirNext-DemiBold'" font-size="22px">t</text>
			<text transform="matrix(1 0 0 1 74.103 72)" font-family="'AvenirNext-DemiBold'" font-size="22px">y</text>
			<text transform="matrix(1 0 0 1 85.8286 72)" font-family="'AvenirNext-DemiBold'" font-size="22px"> </text>
			<text transform="matrix(1 0 0 1 91.3286 72)" font-family="'AvenirNext-DemiBold'" font-size="22px">s</text>
			<text transform="matrix(1 0 0 1 101.0962 72)" font-family="'AvenirNext-DemiBold'" font-size="22px">i</text>
			<text transform="matrix(1 0 0 1 106.9922 72)" font-family="'AvenirNext-DemiBold'" font-size="22px">n</text>
			<text transform="matrix(1 0 0 1 119.7959 72)" font-family="'AvenirNext-DemiBold'" font-size="22px">c</text>
			<text transform="matrix(1 0 0 1 130.5312 72)" font-family="'AvenirNext-DemiBold'" font-size="22px">e</text>
			<text transform="matrix(1 0 0 1 143.1592 72)" font-family="'AvenirNext-DemiBold'" font-size="22px"> </text>
			<text transform="matrix(1 0 0 1 148.6592 72)" font-family="'AvenirNext-DemiBold'" font-size="22px">t</text>
			<text transform="matrix(1 0 0 1 156.1392 72)" font-family="'AvenirNext-DemiBold'" font-size="22px">h</text>
			<text transform="matrix(1 0 0 1 168.9873 72)" font-family="'AvenirNext-DemiBold'" font-size="22px">e</text>
			<text transform="matrix(1 0 0 1 181.6147 72)" font-family="'AvenirNext-DemiBold'" font-size="22px"> </text>
			<text transform="matrix(1 0 0 1 187.1147 72)" font-family="'AvenirNext-DemiBold'" font-size="22px">C</text>
			<text transform="matrix(1 0 0 1 202.1631 72)" font-family="'AvenirNext-DemiBold'" font-size="22px">o</text>
			<text transform="matrix(1 0 0 1 215.583 72)" font-family="'AvenirNext-DemiBold'" font-size="22px">v</text>
			<text transform="matrix(1 0 0 1 226.8687 72)" font-family="'AvenirNext-DemiBold'" font-size="22px">i</text>
			<text transform="matrix(1 0 0 1 232.7642 72)" font-family="'AvenirNext-DemiBold'" font-size="22px">d</text>
			<text transform="matrix(1 0 0 1 246.7119 72)" font-family="'AvenirNext-DemiBold'" font-size="22px">-</text>
			<text transform="matrix(1 0 0 1 253.752 72)" font-family="'AvenirNext-DemiBold'" font-size="22px">1</text>
			<text transform="matrix(1 0 0 1 267.1714 72)" font-family="'AvenirNext-DemiBold'" font-size="22px">9</text>
			<text transform="matrix(1 0 0 1 280.5913 72)" font-family="'AvenirNext-DemiBold'" font-size="22px"> </text>
			<text transform="matrix(1 0 0 1 286.0913 72)" font-family="'AvenirNext-DemiBold'" font-size="22px">p</text>
			<text transform="matrix(1 0 0 1 300.0171 72)" font-family="'AvenirNext-DemiBold'" font-size="22px">a</text>
			<text transform="matrix(1 0 0 1 312.1167 72)" font-family="'AvenirNext-DemiBold'" font-size="22px">n</text>
			<text transform="matrix(1 0 0 1 324.9204 72)" font-family="'AvenirNext-DemiBold'" font-size="22px">d</text>
			<text transform="matrix(1 0 0 1 338.8682 72)" font-family="'AvenirNext-DemiBold'" font-size="22px">e</text>
			<text transform="matrix(1 0 0 1 351.4961 72)" font-family="'AvenirNext-DemiBold'" font-size="22px">m</text>
			<text transform="matrix(1 0 0 1 371.0762 72)" font-family="'AvenirNext-DemiBold'" font-size="22px">i</text>
			<text transform="matrix(1 0 0 1 376.9717 72)" font-family="'AvenirNext-DemiBold'" font-size="22px">c</text>
			<text transform="matrix(1 0 0 1 25 423)" fill="#888888" font-family="'Roboto-Regular'" font-size="11px">C</text>
			<text transform="matrix(1 0 0 1 32.1597 423)" fill="#888888" font-family="'Roboto-Regular'" font-size="11px">h</text>
			<text transform="matrix(1 0 0 1 38.2183 423)" fill="#888888" font-family="'Roboto-Regular'" font-size="11px">a</text>
			<text transform="matrix(1 0 0 1 44.2017 423)" fill="#888888" font-family="'Roboto-Regular'" font-size="11px">r</text>
			<text transform="matrix(1 0 0 1 48.1924 423)" fill="#888888" font-family="'Roboto-Regular'" font-size="11px">t</text>
			<text transform="matrix(1 0 0 1 51.7856 423)" fill="#888888" font-family="'Roboto-Regular'" font-size="11px">:</text>
			<text transform="matrix(1 0 0 1 57.1841 423)" fill="#888888" font-family="'Roboto-Regular'" font-size="11px">D</text>
			<text transform="matrix(1 0 0 1 64.3975 423)" fill="#888888" font-family="'Roboto-Regular'" font-size="11px">a</text>
			<text transform="matrix(1 0 0 1 70.3003 423)" fill="#888888" font-family="'Roboto-Regular'" font-size="11px">v</text>
			<text transform="matrix(1 0 0 1 75.6284 423)" fill="#888888" font-family="'Roboto-Regular'" font-size="11px">i</text>
			<text transform="matrix(1 0 0 1 78.2979 423)" fill="#888888" font-family="'Roboto-Regular'" font-size="11px">d</text>
			<text transform="matrix(1 0 0 1 84.5015 423)" fill="#888888" font-family="'Roboto-Regular'" font-size="11px"> </text>
			<text transform="matrix(1 0 0 1 87.2246 423)" fill="#888888" font-family="'Roboto-Regular'" font-size="11px">M</text>
			<text transform="matrix(1 0 0 1 96.8281 423)" fill="#888888" font-family="'Roboto-Regular'" font-size="11px">a</text>
			<text transform="matrix(1 0 0 1 102.8115 423)" fill="#888888" font-family="'Roboto-Regular'" font-size="11px">m</text>
			<text transform="matrix(1 0 0 1 112.4526 423)" fill="#888888" font-family="'Roboto-Regular'" font-size="11px">a</text>
			<text transform="matrix(1 0 0 1 118.436 423)" fill="#888888" font-family="'Roboto-Regular'" font-size="11px">r</text>
			<text transform="matrix(1 0 0 1 122.1582 423)" fill="#888888" font-family="'Roboto-Regular'" font-size="11px">i</text>
			<text transform="matrix(1 0 0 1 124.8276 423)" fill="#888888" font-family="'Roboto-Regular'" font-size="11px">l</text>
			<text transform="matrix(1 0 0 1 127.4971 423)" fill="#888888" font-family="'Roboto-Regular'" font-size="11px"> </text>
			<text transform="matrix(1 0 0 1 130.2202 423)" fill="#888888" font-family="'Roboto-Regular'" font-size="11px">H</text>
			<text transform="matrix(1 0 0 1 138.062 423)" fill="#888888" font-family="'Roboto-Regular'" font-size="11px">o</text>
			<text transform="matrix(1 0 0 1 144.3354 423)" fill="#888888" font-family="'Roboto-Regular'" font-size="11px">r</text>
			<text transform="matrix(1 0 0 1 147.9502 423)" fill="#888888" font-family="'Roboto-Regular'" font-size="11px">o</text>
			<text transform="matrix(1 0 0 1 154.2236 423)" fill="#888888" font-family="'Roboto-Regular'" font-size="11px">w</text>
			<text transform="matrix(1 0 0 1 162.4897 423)" fill="#888888" font-family="'Roboto-Regular'" font-size="11px">i</text>
			<text transform="matrix(1 0 0 1 165.1592 423)" fill="#888888" font-family="'Roboto-Regular'" font-size="11px">t</text>
			<text transform="matrix(1 0 0 1 168.7524 423)" fill="#888888" font-family="'Roboto-Regular'" font-size="11px">z</text>
			<text transform="matrix(1 0 0 1 176.9431 423)" fill="#888888" font-family="'Roboto-Regular'" font-size="11px">•</text>
			<text transform="matrix(1 0 0 1 183.3882 423)" fill="#888888" font-family="'Roboto-Regular'" font-size="11px">S</text>
			<text transform="matrix(1 0 0 1 189.914 423)" fill="#888888" font-family="'Roboto-Regular'" font-size="11px">o</text>
			<text transform="matrix(1 0 0 1 196.1875 423)" fill="#888888" font-family="'Roboto-Regular'" font-size="11px">u</text>
			<text transform="matrix(1 0 0 1 202.2514 423)" fill="#888888" font-family="'Roboto-Regular'" font-size="11px">r</text>
			<text transform="matrix(1 0 0 1 205.8716 423)" fill="#888888" font-family="'Roboto-Regular'" font-size="11px">c</text>
			<text transform="matrix(1 0 0 1 211.6294 423)" fill="#888888" font-family="'Roboto-Regular'" font-size="11px">e</text>
			<text transform="matrix(1 0 0 1 217.457 423)" fill="#888888" font-family="'Roboto-Regular'" font-size="11px">:</text>
			<text transform="matrix(1 0 0 1 222.8554 423)" fill="#888888" font-family="'Roboto-Regular'" font-size="11px">O</text>
			<text transform="matrix(1 0 0 1 230.4179 423)" fill="#888888" font-family="'Roboto-Regular'" font-size="11px">c</text>
			<text transform="matrix(1 0 0 1 236.1758 423)" fill="#888888" font-family="'Roboto-Regular'" font-size="11px">c</text>
			<text transform="matrix(1 0 0 1 241.9336 423)" fill="#888888" font-family="'Roboto-Regular'" font-size="11px">u</text>
			<text transform="matrix(1 0 0 1 247.9975 423)" fill="#888888" font-family="'Roboto-Regular'" font-size="11px">p</text>
			<text transform="matrix(1 0 0 1 254.1689 423)" fill="#888888" font-family="'Roboto-Regular'" font-size="11px">a</text>
			<text transform="matrix(1 0 0 1 260.1523 423)" fill="#888888" font-family="'Roboto-Regular'" font-size="11px">t</text>
			<text transform="matrix(1 0 0 1 263.7456 423)" fill="#888888" font-family="'Roboto-Regular'" font-size="11px">i</text>
			<text transform="matrix(1 0 0 1 266.415 423)" fill="#888888" font-family="'Roboto-Regular'" font-size="11px">o</text>
			<text transform="matrix(1 0 0 1 272.6884 423)" fill="#888888" font-family="'Roboto-Regular'" font-size="11px">n</text>
			<text transform="matrix(1 0 0 1 278.7578 423)" fill="#888888" font-family="'Roboto-Regular'" font-size="11px">a</text>
			<text transform="matrix(1 0 0 1 284.7412 423)" fill="#888888" font-family="'Roboto-Regular'" font-size="11px">l</text>
			<text transform="matrix(1 0 0 1 287.4106 423)" fill="#888888" font-family="'Roboto-Regular'" font-size="11px"> </text>
			<text transform="matrix(1 0 0 1 290.1338 423)" fill="#888888" font-family="'Roboto-Regular'" font-size="11px">S</text>
			<text transform="matrix(1 0 0 1 296.6596 423)" fill="#888888" font-family="'Roboto-Regular'" font-size="11px">a</text>
			<text transform="matrix(1 0 0 1 302.643 423)" fill="#888888" font-family="'Roboto-Regular'" font-size="11px">f</text>
			<text transform="matrix(1 0 0 1 306.333 423)" fill="#888888" font-family="'Roboto-Regular'" font-size="11px">e</text>
			<text transform="matrix(1 0 0 1 312.1606 423)" fill="#888888" font-family="'Roboto-Regular'" font-size="11px">t</text>
			<text transform="matrix(1 0 0 1 315.7539 423)" fill="#888888" font-family="'Roboto-Regular'" font-size="11px">y</text>
			<text transform="matrix(1 0 0 1 320.9585 423)" fill="#888888" font-family="'Roboto-Regular'" font-size="11px"> </text>
			<text transform="matrix(1 0 0 1 323.6816 423)" fill="#888888" font-family="'Roboto-Regular'" font-size="11px">a</text>
			<text transform="matrix(1 0 0 1 329.665 423)" fill="#888888" font-family="'Roboto-Regular'" font-size="11px">n</text>
			<text transform="matrix(1 0 0 1 335.7343 423)" fill="#888888" font-family="'Roboto-Regular'" font-size="11px">d</text>
			<text transform="matrix(1 0 0 1 341.938 423)" fill="#888888" font-family="'Roboto-Regular'" font-size="11px"> </text>
			<text transform="matrix(1 0 0 1 344.6611 423)" fill="#888888" font-family="'Roboto-Regular'" font-size="11px">H</text>
			<text transform="matrix(1 0 0 1 352.5029 423)" fill="#888888" font-family="'Roboto-Regular'" font-size="11px">e</text>
			<text transform="matrix(1 0 0 1 358.3305 423)" fill="#888888" font-family="'Roboto-Regular'" font-size="11px">a</text>
			<text transform="matrix(1 0 0 1 364.3139 423)" fill="#888888" font-family="'Roboto-Regular'" font-size="11px">l</text>
			<text transform="matrix(1 0 0 1 366.9834 423)" fill="#888888" font-family="'Roboto-Regular'" font-size="11px">t</text>
			<text transform="matrix(1 0 0 1 370.5766 423)" fill="#888888" font-family="'Roboto-Regular'" font-size="11px">h</text>
			<text transform="matrix(1 0 0 1 376.6352 423)" fill="#888888" font-family="'Roboto-Regular'" font-size="11px"> </text>
			<text transform="matrix(1 0 0 1 379.3584 423)" fill="#888888" font-family="'Roboto-Regular'" font-size="11px">A</text>
			<text transform="matrix(1 0 0 1 386.5341 423)" fill="#888888" font-family="'Roboto-Regular'" font-size="11px">d</text>
			<text transform="matrix(1 0 0 1 392.7378 423)" fill="#888888" font-family="'Roboto-Regular'" font-size="11px">m</text>
			<text transform="matrix(1 0 0 1 402.3789 423)" fill="#888888" font-family="'Roboto-Regular'" font-size="11px">i</text>
			<text transform="matrix(1 0 0 1 405.0483 423)" fill="#888888" font-family="'Roboto-Regular'" font-size="11px">n</text>
			<text transform="matrix(1 0 0 1 411.1176 423)" fill="#888888" font-family="'Roboto-Regular'" font-size="11px">i</text>
			<text transform="matrix(1 0 0 1 413.7871 423)" fill="#888888" font-family="'Roboto-Regular'" font-size="11px">s</text>
			<text transform="matrix(1 0 0 1 419.459 423)" fill="#888888" font-family="'Roboto-Regular'" font-size="11px">t</text>
			<text transform="matrix(1 0 0 1 423.0522 423)" fill="#888888" font-family="'Roboto-Regular'" font-size="11px">r</text>
			<text transform="matrix(1 0 0 1 426.5595 423)" fill="#888888" font-family="'Roboto-Regular'" font-size="11px">a</text>
			<text transform="matrix(1 0 0 1 432.5429 423)" fill="#888888" font-family="'Roboto-Regular'" font-size="11px">t</text>
			<text transform="matrix(1 0 0 1 436.1362 423)" fill="#888888" font-family="'Roboto-Regular'" font-size="11px">i</text>
			<text transform="matrix(1 0 0 1 438.8056 423)" fill="#888888" font-family="'Roboto-Regular'" font-size="11px">o</text>
			<text transform="matrix(1 0 0 1 445.0791 423)" fill="#888888" font-family="'Roboto-Regular'" font-size="11px">n</text>
			<text transform="matrix(1 0 0 1 453.8874 423)" fill="#888888" font-family="'Roboto-Regular'" font-size="11px">•</text>
			<text transform="matrix(1 0 0 1 460.3325 423)" fill="#888888" font-family="'Roboto-Regular'" font-size="11px">C</text>
			<text transform="matrix(1 0 0 1 467.4922 423)" fill="#888888" font-family="'Roboto-Regular'" font-size="11px">r</text>
			<text transform="matrix(1 0 0 1 471.1123 423)" fill="#888888" font-family="'Roboto-Regular'" font-size="11px">e</text>
			<text transform="matrix(1 0 0 1 476.9399 423)" fill="#888888" font-family="'Roboto-Regular'" font-size="11px">a</text>
			<text transform="matrix(1 0 0 1 482.9233 423)" fill="#888888" font-family="'Roboto-Regular'" font-size="11px">t</text>
			<text transform="matrix(1 0 0 1 486.5166 423)" fill="#888888" font-family="'Roboto-Regular'" font-size="11px">e</text>
			<text transform="matrix(1 0 0 1 492.3442 423)" fill="#888888" font-family="'Roboto-Regular'" font-size="11px">d</text>
			<text transform="matrix(1 0 0 1 498.5478 423)" fill="#888888" font-family="'Roboto-Regular'" font-size="11px"> </text>
			<text transform="matrix(1 0 0 1 501.271 423)" fill="#888888" font-family="'Roboto-Regular'" font-size="11px">w</text>
			<text transform="matrix(1 0 0 1 509.5371 423)" fill="#888888" font-family="'Roboto-Regular'" font-size="11px">i</text>
			<text transform="matrix(1 0 0 1 512.2065 423)" fill="#888888" font-family="'Roboto-Regular'" font-size="11px">t</text>
			<text transform="matrix(1 0 0 1 515.7998 423)" fill="#888888" font-family="'Roboto-Regular'" font-size="11px">h</text>
			<text transform="matrix(1 0 0 1 524.5928 423)" fill="#888888" font-family="'Roboto-Regular'" font-size="11px">D</text>
			<text transform="matrix(1 0 0 1 531.8062 423)" fill="#888888" font-family="'Roboto-Regular'" font-size="11px">a</text>
			<text transform="matrix(1 0 0 1 537.7896 423)" fill="#888888" font-family="'Roboto-Regular'" font-size="11px">t</text>
			<text transform="matrix(1 0 0 1 541.3828 423)" fill="#888888" font-family="'Roboto-Regular'" font-size="11px">a</text>
			<text transform="matrix(1 0 0 1 547.3662 423)" fill="#888888" font-family="'Roboto-Regular'" font-size="11px">w</text>
			<text transform="matrix(1 0 0 1 555.6323 423)" fill="#888888" font-family="'Roboto-Regular'" font-size="11px">r</text>
			<text transform="matrix(1 0 0 1 559.1396 423)" fill="#888888" font-family="'Roboto-Regular'" font-size="11px">a</text>
			<text transform="matrix(1 0 0 1 565.123 423)" fill="#888888" font-family="'Roboto-Regular'" font-size="11px">p</text>
			<text transform="matrix(1 0 0 1 571.2944 423)" fill="#888888" font-family="'Roboto-Regular'" font-size="11px">p</text>
			<text transform="matrix(1 0 0 1 577.4658 423)" fill="#888888" font-family="'Roboto-Regular'" font-size="11px">e</text>
			<text transform="matrix(1 0 0 1 583.2935 423)" fill="#888888" font-family="'Roboto-Regular'" font-size="11px">r</text>
		</g>
	</g>
</g>
<g id="ai2html-settings">
</g>
</svg>
