<?xml version="1.0" encoding="utf-8"?>
<!-- Generator: Adobe Illustrator 27.7.0, SVG Export Plug-In . SVG Version: 6.00 Build 0)  -->
<svg version="1.2" baseProfile="tiny" id="exportSvg"
	 xmlns="http://www.w3.org/2000/svg" xmlns:xlink="http://www.w3.org/1999/xlink" x="0px" y="0px" viewBox="0 0 650 525"
	 overflow="visible" xml:space="preserve">
<rect x="-425" y="-388.75" fill="#FFFFFF" width="1500" height="1302.5"/>
<image width="1500" height="1290" xlink:href="A9992937BBB98ACF.png"  transform="matrix(1 0 0 1 -425 -389)">
</image>
<rect x="-384.242" y="289.694" fill="none" width="125.658" height="83.563"/>
<text transform="matrix(1 0 0 1 -384.2432 330.3398)" fill="#FFFFFF" stroke="#000000" stroke-width="0.3" stroke-miterlimit="10" font-family="'Charter-Bold'" font-size="55px">104</text>
<rect x="190.462" y="571.141" fill="none" width="125.658" height="83.563"/>
<text transform="matrix(1 0 0 1 190.4609 621.0225)" fill="#FFFFFF" stroke="#000000" stroke-width="0.3" stroke-miterlimit="10" font-family="'Charter-Bold'" font-size="67.5px">128</text>
<rect x="652.816" y="224.603" fill="none" width="125.658" height="83.563"/>
<text transform="matrix(1 0 0 1 652.8145 261.5522)" fill="#FFFFFF" stroke="#000000" stroke-width="0.3" stroke-miterlimit="10" font-family="'Charter-Bold'" font-size="50px">162</text>
<rect x="959.186" y="214.407" fill="none" width="115.814" height="62.791"/>
<text transform="matrix(1 0 0 1 959.1875 251.356)" fill="#AB1283" stroke="#000000" stroke-width="0.3" stroke-miterlimit="10" font-family="'Charter-Bold'" font-size="50px">141</text>
<line fill="#AB1283" stroke="#000000" stroke-width="0.3" stroke-miterlimit="10" x1="929.783" y1="214.407" x2="964.642" y2="231.151"/>
<text transform="matrix(1 0 0 1 -321.4131 -248.1602)" fill="#7A0177" font-family="'AvenirNext-MediumItalic'" font-size="27.5px">O</text>
<text transform="matrix(1 0 0 1 -298.5605 -248.1602)" fill="#7A0177" font-family="'AvenirNext-MediumItalic'" font-size="27.5px">S</text>
<text transform="matrix(1 0 0 1 -282.9136 -248.1602)" fill="#7A0177" font-family="'AvenirNext-MediumItalic'" font-size="27.5px">H</text>
<text transform="matrix(1 0 0 1 -263.1411 -248.1602)" fill="#7A0177" font-family="'AvenirNext-MediumItalic'" font-size="27.5px">A</text>
<text transform="matrix(1 0 0 1 -244.9087 -248.1602)" fill="#7A0177" font-family="'AvenirNext-MediumItalic'" font-size="27.5px"> </text>
<text transform="matrix(1 0 0 1 -238.0337 -248.1602)" fill="#7A0177" font-family="'AvenirNext-MediumItalic'" font-size="27.5px">f</text>
<text transform="matrix(1 0 0 1 -222.2764 -248.1602)" fill="#7A0177" font-family="'AvenirNext-MediumItalic'" font-size="27.5px">i</text>
<text transform="matrix(1 0 0 1 -206.2988 -248.1602)" fill="#7A0177" font-family="'AvenirNext-MediumItalic'" font-size="27.5px">n</text>
<text transform="matrix(1 0 0 1 -190.7617 -248.1602)" fill="#7A0177" font-family="'AvenirNext-MediumItalic'" font-size="27.5px">e</text>
<text transform="matrix(1 0 0 1 -178.5522 -248.1602)" fill="#7A0177" font-family="'AvenirNext-MediumItalic'" font-size="27.5px">s</text>
<text transform="matrix(1 0 0 1 -171.6772 -248.1602)" fill="#7A0177" font-family="'AvenirNext-MediumItalic'" font-size="27.5px"> </text>
<text transform="matrix(1 0 0 1 -7866 -7929)" fill="#7A0177" font-family="'AvenirNext-MediumItalic'" font-size="27.5px">o</text>
<text transform="matrix(1 0 0 1 -155.1772 -248.1602)" fill="#7A0177" font-family="'AvenirNext-MediumItalic'" font-size="27.5px">f</text>
<text transform="matrix(1 0 0 1 -146.0205 -248.1602)" fill="#7A0177" font-family="'AvenirNext-MediumItalic'" font-size="27.5px"> </text>
<text transform="matrix(1 0 0 1 -139.1455 -248.1602)" fill="#7A0177" font-family="'AvenirNext-MediumItalic'" font-size="27.5px">$</text>
<text transform="matrix(1 0 0 1 -122.7832 -248.1602)" fill="#7A0177" font-family="'AvenirNext-MediumItalic'" font-size="27.5px">4</text>
<text transform="matrix(1 0 0 1 -106.4214 -248.1602)" fill="#7A0177" font-family="'AvenirNext-MediumItalic'" font-size="27.5px">0</text>
<text transform="matrix(1 0 0 1 -90.0591 -248.1602)" fill="#7A0177" font-family="'AvenirNext-MediumItalic'" font-size="27.5px">,</text>
<text transform="matrix(1 0 0 1 -82.9092 -248.1602)" fill="#7A0177" font-family="'AvenirNext-MediumItalic'" font-size="27.5px">0</text>
<text transform="matrix(1 0 0 1 -66.5474 -248.1602)" fill="#7A0177" font-family="'AvenirNext-MediumItalic'" font-size="27.5px">0</text>
<text transform="matrix(1 0 0 1 -50.1851 -248.1602)" fill="#7A0177" font-family="'AvenirNext-MediumItalic'" font-size="27.5px">0</text>
<text transform="matrix(1 0 0 1 -33.8232 -248.1602)" fill="#7A0177" font-family="'AvenirNext-MediumItalic'" font-size="27.5px"> </text>
<text transform="matrix(1 0 0 1 -26.9482 -248.1602)" fill="#7A0177" font-family="'AvenirNext-MediumItalic'" font-size="27.5px">o</text>
<text transform="matrix(1 0 0 1 -10.4482 -248.1602)" fill="#7A0177" font-family="'AvenirNext-MediumItalic'" font-size="27.5px">r</text>
<text transform="matrix(1 0 0 1 -1.0161 -248.1602)" fill="#7A0177" font-family="'AvenirNext-MediumItalic'" font-size="27.5px"> </text>
<text transform="matrix(1 0 0 1 5.8589 -248.1602)" fill="#7A0177" font-family="'AvenirNext-MediumItalic'" font-size="27.5px">m</text>
<text transform="matrix(1 0 0 1 30.1685 -248.1602)" fill="#7A0177" font-family="'AvenirNext-MediumItalic'" font-size="27.5px">o</text>
<text transform="matrix(1 0 0 1 46.6685 -248.1602)" fill="#7A0177" font-family="'AvenirNext-MediumItalic'" font-size="27.5px">r</text>
<text transform="matrix(1 0 0 1 55.7705 -248.1602)" fill="#7A0177" font-family="'AvenirNext-MediumItalic'" font-size="27.5px">e</text>
</svg>
