<?xml version="1.0" encoding="utf-8"?>
<!-- Generator: Adobe Illustrator 27.7.0, SVG Export Plug-In . SVG Version: 6.00 Build 0)  -->
<svg version="1.2" baseProfile="tiny" xmlns="http://www.w3.org/2000/svg" xmlns:xlink="http://www.w3.org/1999/xlink" x="0px"
	 y="0px" viewBox="0 0 650 446.818" overflow="visible" xml:space="preserve">
<g id="svg:interactives">
	<g id="_x31_04">
		<path fill="#FFFFFF" stroke="#000000" stroke-width="0.3" stroke-miterlimit="10" d="M23.883,170.935h1.169v11.004l0.193,0.281
			l1.696,0.079v0.896h-6.249v-0.896l1.802-0.114l0.211-0.325v-8.851l-0.158-0.22l-2.558,0.378v-0.914L23.883,170.935z"/>
		<path fill="#FFFFFF" stroke="#000000" stroke-width="0.3" stroke-miterlimit="10" d="M33.761,170.9
			c1.418,0,2.537,0.558,3.357,1.675c0.82,1.115,1.23,2.646,1.23,4.592s-0.409,3.474-1.226,4.584s-1.938,1.665-3.362,1.665
			c-1.418,0-2.531-0.555-3.34-1.665s-1.213-2.639-1.213-4.584c0-1.951,0.406-3.483,1.217-4.597S32.349,170.9,33.761,170.9z
			 M33.779,171.91c-0.703,0-1.233,0.437-1.591,1.31s-0.536,2.165-0.536,3.876c0,1.764,0.177,3.087,0.532,3.969
			s0.886,1.322,1.595,1.322s1.241-0.437,1.595-1.31s0.532-2.183,0.532-3.929s-0.177-3.056-0.532-3.929S34.488,171.91,33.779,171.91z
			"/>
		<path fill="#FFFFFF" stroke="#000000" stroke-width="0.3" stroke-miterlimit="10" d="M45.337,171.014h1.767v7.506h2.03v1.415
			h-2.03v3.814h-2.109v-3.814h-5.599v-1.459L45.337,171.014z M44.994,173.492l-3.955,5.027h3.955V173.492z"/>
	</g>
	<g id="_x31_28">
		<path fill="#FFFFFF" stroke="#000000" stroke-width="0.3" stroke-miterlimit="10" d="M273.896,293.067h1.364v12.838l0.226,0.328
			l1.979,0.093v1.046h-7.291v-1.046l2.102-0.134l0.246-0.379v-10.326l-0.185-0.256l-2.984,0.441v-1.066L273.896,293.067z"/>
		<path fill="#FFFFFF" stroke="#000000" stroke-width="0.3" stroke-miterlimit="10" d="M282.899,305.229h5.886l0.379-1.846h1.282
			v3.988h-10.172v-1.661c2.639-2.051,4.437-3.681,5.394-4.892c0.957-1.209,1.436-2.379,1.436-3.506c0-0.924-0.229-1.645-0.687-2.164
			s-1.09-0.779-1.897-0.779c-0.191,0-0.392,0.022-0.6,0.066c-0.209,0.045-0.416,0.107-0.621,0.189v2.707
			c-0.232,0.123-0.458,0.218-0.677,0.282c-0.219,0.065-0.434,0.098-0.646,0.098c-0.458,0-0.824-0.134-1.097-0.399
			c-0.273-0.268-0.41-0.622-0.41-1.066c0-0.924,0.461-1.69,1.384-2.303c0.923-0.611,2.105-0.918,3.548-0.918
			c1.388,0,2.502,0.375,3.343,1.123c0.841,0.749,1.261,1.742,1.261,2.979c0,1.184-0.515,2.373-1.543,3.568
			C287.433,301.893,285.579,303.403,282.899,305.229z"/>
		<path fill="#FFFFFF" stroke="#000000" stroke-width="0.3" stroke-miterlimit="10" d="M299.746,299.897
			c1.039,0.369,1.806,0.851,2.302,1.445c0.495,0.595,0.743,1.33,0.743,2.205c0,1.25-0.484,2.254-1.451,3.009
			c-0.967,0.756-2.268,1.134-3.901,1.134c-1.511,0-2.736-0.382-3.676-1.144c-0.94-0.763-1.41-1.741-1.41-2.938
			c0-0.812,0.241-1.503,0.723-2.07c0.482-0.567,1.185-0.988,2.107-1.262c-0.731-0.335-1.285-0.779-1.661-1.333
			s-0.564-1.203-0.564-1.948c0-1.21,0.444-2.181,1.333-2.912s2.071-1.098,3.548-1.098c1.306,0,2.364,0.341,3.173,1.021
			c0.811,0.681,1.215,1.558,1.215,2.63c0,0.712-0.21,1.344-0.63,1.897C301.177,299.086,300.56,299.541,299.746,299.897z
			 M296.137,300.778c-0.458,0.41-0.79,0.822-0.995,1.236c-0.205,0.413-0.308,0.87-0.308,1.369c0,0.875,0.263,1.598,0.79,2.168
			c0.526,0.571,1.193,0.856,2,0.856c0.752,0,1.36-0.207,1.825-0.62c0.465-0.414,0.697-0.949,0.697-1.605
			c0-0.676-0.277-1.259-0.831-1.748C298.762,301.946,297.702,301.393,296.137,300.778z M298.762,299.414
			c0.355-0.342,0.625-0.729,0.81-1.164c0.185-0.434,0.277-0.907,0.277-1.42c0-0.766-0.205-1.388-0.615-1.866
			s-0.947-0.718-1.61-0.718c-0.581,0-1.063,0.2-1.446,0.6c-0.383,0.4-0.574,0.908-0.574,1.523c0,0.629,0.246,1.183,0.738,1.66
			C296.834,298.509,297.641,298.97,298.762,299.414z"/>
	</g>
	<g id="_x31_62">
		<path fill="#FFFFFF" stroke="#000000" stroke-width="0.3" stroke-miterlimit="10" d="M473.274,142.728h1.169v11.004l0.193,0.281
			l1.696,0.079v0.896h-6.249v-0.896l1.802-0.114l0.211-0.325v-8.851l-0.158-0.22l-2.558,0.378v-0.914L473.274,142.728z"/>
		<path fill="#FFFFFF" stroke="#000000" stroke-width="0.3" stroke-miterlimit="10" d="M486.317,142.139l0.009,1.327l-0.765-0.07
			c-1.185,0.088-2.145,0.504-2.88,1.248c-0.736,0.744-1.215,1.787-1.438,3.129c0.463-0.305,0.933-0.535,1.41-0.69
			c0.477-0.155,0.961-0.233,1.453-0.233c1.06,0,1.944,0.375,2.655,1.125c0.712,0.75,1.067,1.69,1.067,2.821
			c0,1.295-0.432,2.357-1.295,3.186s-1.969,1.244-3.314,1.244c-1.388,0-2.484-0.485-3.289-1.455s-1.207-2.298-1.207-3.986
			c0-2.314,0.689-4.166,2.07-5.555C482.172,142.843,484.014,142.145,486.317,142.139z M481.131,148.74
			c-0.006,0.135-0.014,0.331-0.021,0.589c-0.01,0.258-0.014,0.422-0.014,0.492c0,1.383,0.202,2.443,0.607,3.182
			s0.983,1.107,1.735,1.107c0.604,0,1.092-0.27,1.462-0.809s0.555-1.26,0.555-2.162c0-0.879-0.216-1.573-0.647-2.083
			s-1.014-0.765-1.748-0.765c-0.353,0-0.689,0.038-1.013,0.114S481.418,148.594,481.131,148.74z"/>
		<path fill="#FFFFFF" stroke="#000000" stroke-width="0.3" stroke-miterlimit="10" d="M491.449,153.152h5.045l0.325-1.582h1.099
			v3.419h-8.719v-1.424c2.262-1.758,3.803-3.155,4.623-4.192s1.23-2.039,1.23-3.006c0-0.791-0.196-1.409-0.589-1.854
			s-0.935-0.668-1.626-0.668c-0.164,0-0.336,0.019-0.514,0.057c-0.18,0.038-0.356,0.092-0.532,0.163v2.32
			c-0.199,0.105-0.393,0.186-0.58,0.242s-0.372,0.083-0.554,0.083c-0.393,0-0.706-0.114-0.94-0.343s-0.352-0.533-0.352-0.914
			c0-0.791,0.396-1.449,1.187-1.973s1.805-0.787,3.041-0.787c1.189,0,2.145,0.321,2.865,0.962s1.081,1.493,1.081,2.553
			c0,1.014-0.441,2.033-1.323,3.059S493.746,151.588,491.449,153.152z"/>
	</g>
	<g id="_x31_41">
		<path fill="#AB1283" stroke="#000000" stroke-width="0.3" stroke-miterlimit="10" d="M606.034,138.31h1.169v11.004l0.193,0.281
			l1.696,0.079v0.896h-6.249v-0.896l1.802-0.114l0.211-0.325v-8.851l-0.158-0.22l-2.558,0.378v-0.914L606.034,138.31z"/>
		<path fill="#AB1283" stroke="#000000" stroke-width="0.3" stroke-miterlimit="10" d="M617.03,138.389h1.767v7.506h2.03v1.415
			h-2.03v3.814h-2.109v-3.814h-5.599v-1.459L617.03,138.389z M616.687,140.868l-3.955,5.027h3.955V140.868z"/>
		<path fill="#AB1283" stroke="#000000" stroke-width="0.3" stroke-miterlimit="10" d="M626.952,138.31h1.169v11.004l0.193,0.281
			l1.696,0.079v0.896h-6.249v-0.896l1.802-0.114l0.211-0.325v-8.851l-0.158-0.22l-2.558,0.378v-0.914L626.952,138.31z"/>
	</g>
</g>
<g id="ai2html-settings">
	<rect x="-450" fill="none" width="400" height="418"/>
	<text transform="matrix(1 0 0 1 -450 10.6499)" font-family="'MyriadPro-Regular'" font-size="15px">a</text>
	<text transform="matrix(1 0 0 1 -442.77 10.6499)" font-family="'MyriadPro-Regular'" font-size="15px">i</text>
	<text transform="matrix(1 0 0 1 -439.2603 10.6499)" font-family="'MyriadPro-Regular'" font-size="15px">2</text>
	<text transform="matrix(1 0 0 1 -431.5654 10.6499)" font-family="'MyriadPro-Regular'" font-size="15px">h</text>
	<text transform="matrix(1 0 0 1 -423.3008 10.6499)" font-family="'MyriadPro-Regular'" font-size="15px">t</text>
	<text transform="matrix(1 0 0 1 -418.3359 10.6499)" font-family="'MyriadPro-Regular'" font-size="15px">m</text>
	<text transform="matrix(1 0 0 1 -405.8262 10.6499)" font-family="'MyriadPro-Regular'" font-size="15px">l</text>
	<text transform="matrix(1 0 0 1 -402.2861 10.6499)" font-family="'MyriadPro-Regular'" font-size="15px">-</text>
	<text transform="matrix(1 0 0 1 -397.6812 10.6499)" font-family="'MyriadPro-Regular'" font-size="15px">s</text>
	<text transform="matrix(1 0 0 1 -391.7412 10.6499)" font-family="'MyriadPro-Regular'" font-size="15px">e</text>
	<text transform="matrix(1 0 0 1 -384.2266 10.6499)" font-family="'MyriadPro-Regular'" font-size="15px">t</text>
	<text transform="matrix(1 0 0 1 -379.2617 10.6499)" font-family="'MyriadPro-Regular'" font-size="15px">t</text>
	<text transform="matrix(1 0 0 1 -374.2969 10.6499)" font-family="'MyriadPro-Regular'" font-size="15px">i</text>
	<text transform="matrix(1 0 0 1 -370.7871 10.6499)" font-family="'MyriadPro-Regular'" font-size="15px">n</text>
	<text transform="matrix(1 0 0 1 -362.4624 10.6499)" font-family="'MyriadPro-Regular'" font-size="15px">g</text>
	<text transform="matrix(1 0 0 1 -354.0776 10.6499)" font-family="'MyriadPro-Regular'" font-size="15px">s</text>
	<text transform="matrix(1 0 0 1 -450 29.6499)" font-family="'MyriadPro-Regular'" font-size="15px">s</text>
	<text transform="matrix(1 0 0 1 -444.0601 29.6499)" font-family="'MyriadPro-Regular'" font-size="15px">e</text>
	<text transform="matrix(1 0 0 1 -436.5454 29.6499)" font-family="'MyriadPro-Regular'" font-size="15px">t</text>
	<text transform="matrix(1 0 0 1 -431.5806 29.6499)" font-family="'MyriadPro-Regular'" font-size="15px">t</text>
	<text transform="matrix(1 0 0 1 -426.6157 29.6499)" font-family="'MyriadPro-Regular'" font-size="15px">i</text>
	<text transform="matrix(1 0 0 1 -423.106 29.6499)" font-family="'MyriadPro-Regular'" font-size="15px">n</text>
	<text transform="matrix(1 0 0 1 -414.7812 29.6499)" font-family="'MyriadPro-Regular'" font-size="15px">g</text>
	<text transform="matrix(1 0 0 1 -406.3965 29.6499)" font-family="'MyriadPro-Regular'" font-size="15px">s</text>
	<text transform="matrix(1 0 0 1 -400.4565 29.6499)" font-family="'MyriadPro-Regular'" font-size="15px">_</text>
	<text transform="matrix(1 0 0 1 -392.9565 29.6499)" font-family="'MyriadPro-Regular'" font-size="15px">v</text>
	<text transform="matrix(1 0 0 1 -385.8916 29.6499)" font-family="'MyriadPro-Regular'" font-size="15px">e</text>
	<text transform="matrix(1 0 0 1 -378.377 29.6499)" font-family="'MyriadPro-Regular'" font-size="15px">r</text>
	<text transform="matrix(1 0 0 1 -373.4722 29.6499)" font-family="'MyriadPro-Regular'" font-size="15px">s</text>
	<text transform="matrix(1 0 0 1 -367.5322 29.6499)" font-family="'MyriadPro-Regular'" font-size="15px">i</text>
	<text transform="matrix(1 0 0 1 -364.0225 29.6499)" font-family="'MyriadPro-Regular'" font-size="15px">o</text>
	<text transform="matrix(1 0 0 1 -355.7876 29.6499)" font-family="'MyriadPro-Regular'" font-size="15px">n</text>
	<text transform="matrix(1 0 0 1 -347.4629 29.6499)" font-family="'MyriadPro-Regular'" font-size="15px">:</text>
	<text transform="matrix(1 0 0 1 -344.3579 29.6499)" font-family="'MyriadPro-Regular'" font-size="15px"> </text>
	<text transform="matrix(1 0 0 1 -341.1782 29.6499)" font-family="'MyriadPro-Regular'" font-size="15px">0</text>
	<text transform="matrix(1 0 0 1 -333.4834 29.6499)" font-family="'MyriadPro-Regular'" font-size="15px">.</text>
	<text transform="matrix(1 0 0 1 -330.3784 29.6499)" font-family="'MyriadPro-Regular'" font-size="15px">1</text>
	<text transform="matrix(1 0 0 1 -322.6836 29.6499)" font-family="'MyriadPro-Regular'" font-size="15px">1</text>
	<text transform="matrix(1 0 0 1 -314.9888 29.6499)" font-family="'MyriadPro-Regular'" font-size="15px">3</text>
	<text transform="matrix(1 0 0 1 -307.2939 29.6499)" font-family="'MyriadPro-Regular'" font-size="15px">.</text>
	<text transform="matrix(1 0 0 1 -304.189 29.6499)" font-family="'MyriadPro-Regular'" font-size="15px">0</text>
	<text transform="matrix(1 0 0 1 -450 48.6499)" font-family="'MyriadPro-Regular'" font-size="15px">i</text>
	<text transform="matrix(1 0 0 1 -446.4902 48.6499)" font-family="'MyriadPro-Regular'" font-size="15px">m</text>
	<text transform="matrix(1 0 0 1 -433.9805 48.6499)" font-family="'MyriadPro-Regular'" font-size="15px">a</text>
	<text transform="matrix(1 0 0 1 -426.7505 48.6499)" font-family="'MyriadPro-Regular'" font-size="15px">g</text>
	<text transform="matrix(1 0 0 1 -418.3657 48.6499)" font-family="'MyriadPro-Regular'" font-size="15px">e</text>
	<text transform="matrix(1 0 0 1 -410.8511 48.6499)" font-family="'MyriadPro-Regular'" font-size="15px">_</text>
	<text transform="matrix(1 0 0 1 -403.3511 48.6499)" font-family="'MyriadPro-Regular'" font-size="15px">f</text>
	<text transform="matrix(1 0 0 1 -399.166 48.6499)" font-family="'MyriadPro-Regular'" font-size="15px">o</text>
	<text transform="matrix(1 0 0 1 -390.9312 48.6499)" font-family="'MyriadPro-Regular'" font-size="15px">r</text>
	<text transform="matrix(1 0 0 1 -385.9663 48.6499)" font-family="'MyriadPro-Regular'" font-size="15px">m</text>
	<text transform="matrix(1 0 0 1 -373.4565 48.6499)" font-family="'MyriadPro-Regular'" font-size="15px">a</text>
	<text transform="matrix(1 0 0 1 -366.2866 48.6499)" font-family="'MyriadPro-Regular'" font-size="15px">t</text>
	<text transform="matrix(1 0 0 1 -361.3218 48.6499)" font-family="'MyriadPro-Regular'" font-size="15px">:</text>
	<text transform="matrix(1 0 0 1 -358.2168 48.6499)" font-family="'MyriadPro-Regular'" font-size="15px"> </text>
	<text transform="matrix(1 0 0 1 -355.0371 48.6499)" font-family="'MyriadPro-Regular'" font-size="15px">a</text>
	<text transform="matrix(1 0 0 1 -347.8071 48.6499)" font-family="'MyriadPro-Regular'" font-size="15px">u</text>
	<text transform="matrix(1 0 0 1 -339.542 48.6499)" font-family="'MyriadPro-Regular'" font-size="15px">t</text>
	<text transform="matrix(1 0 0 1 -334.667 48.6499)" font-family="'MyriadPro-Regular'" font-size="15px">o</text>
	<text transform="matrix(1 0 0 1 -450 67.6499)" font-family="'MyriadPro-Regular'" font-size="15px">i</text>
	<text transform="matrix(1 0 0 1 -446.4902 67.6499)" font-family="'MyriadPro-Regular'" font-size="15px">n</text>
	<text transform="matrix(1 0 0 1 -438.1655 67.6499)" font-family="'MyriadPro-Regular'" font-size="15px">l</text>
	<text transform="matrix(1 0 0 1 -434.6255 67.6499)" font-family="'MyriadPro-Regular'" font-size="15px">i</text>
	<text transform="matrix(1 0 0 1 -431.1157 67.6499)" font-family="'MyriadPro-Regular'" font-size="15px">n</text>
	<text transform="matrix(1 0 0 1 -422.791 67.6499)" font-family="'MyriadPro-Regular'" font-size="15px">e</text>
	<text transform="matrix(1 0 0 1 -415.2764 67.6499)" font-family="'MyriadPro-Regular'" font-size="15px">_</text>
	<text transform="matrix(1 0 0 1 -407.7764 67.6499)" font-family="'MyriadPro-Regular'" font-size="15px">s</text>
	<text transform="matrix(1 0 0 1 -401.8364 67.6499)" font-family="'MyriadPro-Regular'" font-size="15px">v</text>
	<text transform="matrix(1 0 0 1 -394.7715 67.6499)" font-family="'MyriadPro-Regular'" font-size="15px">g</text>
	<text transform="matrix(1 0 0 1 -386.3867 67.6499)" font-family="'MyriadPro-Regular'" font-size="15px">:</text>
	<text transform="matrix(1 0 0 1 -383.2817 67.6499)" font-family="'MyriadPro-Regular'" font-size="15px">t</text>
	<text transform="matrix(1 0 0 1 -378.3169 67.6499)" font-family="'MyriadPro-Regular'" font-size="15px">r</text>
	<text transform="matrix(1 0 0 1 -373.4121 67.6499)" font-family="'MyriadPro-Regular'" font-size="15px">u</text>
	<text transform="matrix(1 0 0 1 -365.147 67.6499)" font-family="'MyriadPro-Regular'" font-size="15px">e</text>
	<text transform="matrix(1 0 0 1 -450 86.6499)" font-family="'MyriadPro-Regular'" font-size="15px">r</text>
	<text transform="matrix(1 0 0 1 -445.2451 86.6499)" font-family="'MyriadPro-Regular'" font-size="15px">e</text>
	<text transform="matrix(1 0 0 1 -437.7305 86.6499)" font-family="'MyriadPro-Regular'" font-size="15px">s</text>
	<text transform="matrix(1 0 0 1 -431.7905 86.6499)" font-family="'MyriadPro-Regular'" font-size="15px">p</text>
	<text transform="matrix(1 0 0 1 -423.2559 86.6499)" font-family="'MyriadPro-Regular'" font-size="15px">o</text>
	<text transform="matrix(1 0 0 1 -415.021 86.6499)" font-family="'MyriadPro-Regular'" font-size="15px">n</text>
	<text transform="matrix(1 0 0 1 -406.6963 86.6499)" font-family="'MyriadPro-Regular'" font-size="15px">s</text>
	<text transform="matrix(1 0 0 1 -400.7563 86.6499)" font-family="'MyriadPro-Regular'" font-size="15px">i</text>
	<text transform="matrix(1 0 0 1 -397.2466 86.6499)" font-family="'MyriadPro-Regular'" font-size="15px">v</text>
	<text transform="matrix(1 0 0 1 -390.1816 86.6499)" font-family="'MyriadPro-Regular'" font-size="15px">e</text>
	<text transform="matrix(1 0 0 1 -382.667 86.6499)" font-family="'MyriadPro-Regular'" font-size="15px">n</text>
	<text transform="matrix(1 0 0 1 -374.3423 86.6499)" font-family="'MyriadPro-Regular'" font-size="15px">e</text>
	<text transform="matrix(1 0 0 1 -366.8276 86.6499)" font-family="'MyriadPro-Regular'" font-size="15px">s</text>
	<text transform="matrix(1 0 0 1 -360.8877 86.6499)" font-family="'MyriadPro-Regular'" font-size="15px">s</text>
	<text transform="matrix(1 0 0 1 -354.9478 86.6499)" font-family="'MyriadPro-Regular'" font-size="15px">:</text>
	<text transform="matrix(1 0 0 1 -351.8428 86.6499)" font-family="'MyriadPro-Regular'" font-size="15px"> </text>
	<text transform="matrix(1 0 0 1 -348.6631 86.6499)" font-family="'MyriadPro-Regular'" font-size="15px">f</text>
	<text transform="matrix(1 0 0 1 -7866 -7968)" font-family="'MyriadPro-Regular'" font-size="15px">i</text>
	<text transform="matrix(1 0 0 1 -340.8184 86.6499)" font-family="'MyriadPro-Regular'" font-size="15px">x</text>
	<text transform="matrix(1 0 0 1 -334.0986 86.6499)" font-family="'MyriadPro-Regular'" font-size="15px">e</text>
	<text transform="matrix(1 0 0 1 -326.584 86.6499)" font-family="'MyriadPro-Regular'" font-size="15px">d</text>
	<text transform="matrix(1 0 0 1 -450 105.6499)" font-family="'MyriadPro-Regular'" font-size="15px">o</text>
	<text transform="matrix(1 0 0 1 -441.7651 105.6499)" font-family="'MyriadPro-Regular'" font-size="15px">u</text>
	<text transform="matrix(1 0 0 1 -433.5 105.6499)" font-family="'MyriadPro-Regular'" font-size="15px">t</text>
	<text transform="matrix(1 0 0 1 -428.5352 105.6499)" font-family="'MyriadPro-Regular'" font-size="15px">p</text>
	<text transform="matrix(1 0 0 1 -420.0005 105.6499)" font-family="'MyriadPro-Regular'" font-size="15px">u</text>
	<text transform="matrix(1 0 0 1 -411.7354 105.6499)" font-family="'MyriadPro-Regular'" font-size="15px">t</text>
	<text transform="matrix(1 0 0 1 -406.7705 105.6499)" font-family="'MyriadPro-Regular'" font-size="15px">:</text>
	<text transform="matrix(1 0 0 1 -403.6655 105.6499)" font-family="'MyriadPro-Regular'" font-size="15px"> </text>
	<text transform="matrix(1 0 0 1 -400.4858 105.6499)" font-family="'MyriadPro-Regular'" font-size="15px">o</text>
	<text transform="matrix(1 0 0 1 -392.251 105.6499)" font-family="'MyriadPro-Regular'" font-size="15px">n</text>
	<text transform="matrix(1 0 0 1 -383.9263 105.6499)" font-family="'MyriadPro-Regular'" font-size="15px">e</text>
	<text transform="matrix(1 0 0 1 -375.9917 105.6499)" font-family="'MyriadPro-Regular'" font-size="15px">-</text>
	<text transform="matrix(1 0 0 1 -371.3867 105.6499)" font-family="'MyriadPro-Regular'" font-size="15px">f</text>
	<text transform="matrix(1 0 0 1 -363.542 105.6499)" font-family="'MyriadPro-Regular'" font-size="15px">i</text>
	<text transform="matrix(1 0 0 1 -360.002 105.6499)" font-family="'MyriadPro-Regular'" font-size="15px">l</text>
	<text transform="matrix(1 0 0 1 49814.8164 -7968)" font-family="'MyriadPro-Regular'" font-size="15px">e</text>
	<text transform="matrix(1 0 0 1 -450 124.6499)" font-family="'MyriadPro-Regular'" font-size="15px">h</text>
	<text transform="matrix(1 0 0 1 -441.7354 124.6499)" font-family="'MyriadPro-Regular'" font-size="15px">t</text>
	<text transform="matrix(1 0 0 1 -436.7705 124.6499)" font-family="'MyriadPro-Regular'" font-size="15px">m</text>
	<text transform="matrix(1 0 0 1 -424.2607 124.6499)" font-family="'MyriadPro-Regular'" font-size="15px">l</text>
	<text transform="matrix(1 0 0 1 -420.7207 124.6499)" font-family="'MyriadPro-Regular'" font-size="15px">_</text>
	<text transform="matrix(1 0 0 1 -413.2207 124.6499)" font-family="'MyriadPro-Regular'" font-size="15px">o</text>
	<text transform="matrix(1 0 0 1 -404.9858 124.6499)" font-family="'MyriadPro-Regular'" font-size="15px">u</text>
	<text transform="matrix(1 0 0 1 -396.7207 124.6499)" font-family="'MyriadPro-Regular'" font-size="15px">t</text>
	<text transform="matrix(1 0 0 1 -391.7559 124.6499)" font-family="'MyriadPro-Regular'" font-size="15px">p</text>
	<text transform="matrix(1 0 0 1 -383.2212 124.6499)" font-family="'MyriadPro-Regular'" font-size="15px">u</text>
	<text transform="matrix(1 0 0 1 -374.9561 124.6499)" font-family="'MyriadPro-Regular'" font-size="15px">t</text>
	<text transform="matrix(1 0 0 1 -369.9912 124.6499)" font-family="'MyriadPro-Regular'" font-size="15px">_</text>
	<text transform="matrix(1 0 0 1 -362.4912 124.6499)" font-family="'MyriadPro-Regular'" font-size="15px">p</text>
	<text transform="matrix(1 0 0 1 -353.9565 124.6499)" font-family="'MyriadPro-Regular'" font-size="15px">a</text>
	<text transform="matrix(1 0 0 1 -346.7866 124.6499)" font-family="'MyriadPro-Regular'" font-size="15px">t</text>
	<text transform="matrix(1 0 0 1 -341.8218 124.6499)" font-family="'MyriadPro-Regular'" font-size="15px">h</text>
	<text transform="matrix(1 0 0 1 -333.4971 124.6499)" font-family="'MyriadPro-Regular'" font-size="15px">:</text>
	<text transform="matrix(1 0 0 1 -330.3921 124.6499)" font-family="'MyriadPro-Regular'" font-size="15px"> </text>
	<text transform="matrix(1 0 0 1 -327.2124 124.6499)" font-family="'MyriadPro-Regular'" font-size="15px">/</text>
	<text transform="matrix(1 0 0 1 -322.0674 124.6499)" font-family="'MyriadPro-Regular'" font-size="15px">a</text>
	<text transform="matrix(1 0 0 1 -314.8374 124.6499)" font-family="'MyriadPro-Regular'" font-size="15px">i</text>
	<text transform="matrix(1 0 0 1 -311.3276 124.6499)" font-family="'MyriadPro-Regular'" font-size="15px">2</text>
	<text transform="matrix(1 0 0 1 -303.6328 124.6499)" font-family="'MyriadPro-Regular'" font-size="15px">h</text>
	<text transform="matrix(1 0 0 1 -295.3677 124.6499)" font-family="'MyriadPro-Regular'" font-size="15px">t</text>
	<text transform="matrix(1 0 0 1 -290.4028 124.6499)" font-family="'MyriadPro-Regular'" font-size="15px">m</text>
	<text transform="matrix(1 0 0 1 -277.8931 124.6499)" font-family="'MyriadPro-Regular'" font-size="15px">l</text>
	<text transform="matrix(1 0 0 1 -274.353 124.6499)" font-family="'MyriadPro-Regular'" font-size="15px">-</text>
	<text transform="matrix(1 0 0 1 -269.4785 124.6499)" font-family="'MyriadPro-Regular'" font-size="15px">o</text>
	<text transform="matrix(1 0 0 1 -261.2437 124.6499)" font-family="'MyriadPro-Regular'" font-size="15px">u</text>
	<text transform="matrix(1 0 0 1 -252.9785 124.6499)" font-family="'MyriadPro-Regular'" font-size="15px">t</text>
	<text transform="matrix(1 0 0 1 -248.0137 124.6499)" font-family="'MyriadPro-Regular'" font-size="15px">p</text>
	<text transform="matrix(1 0 0 1 -239.479 124.6499)" font-family="'MyriadPro-Regular'" font-size="15px">u</text>
	<text transform="matrix(1 0 0 1 -231.2139 124.6499)" font-family="'MyriadPro-Regular'" font-size="15px">t</text>
	<text transform="matrix(1 0 0 1 -226.249 124.6499)" font-family="'MyriadPro-Regular'" font-size="15px">/</text>
	<text transform="matrix(1 0 0 1 -450 143.6499)" font-family="'MyriadPro-Regular'" font-size="15px">h</text>
	<text transform="matrix(1 0 0 1 -441.7354 143.6499)" font-family="'MyriadPro-Regular'" font-size="15px">t</text>
	<text transform="matrix(1 0 0 1 -436.7705 143.6499)" font-family="'MyriadPro-Regular'" font-size="15px">m</text>
	<text transform="matrix(1 0 0 1 -424.2607 143.6499)" font-family="'MyriadPro-Regular'" font-size="15px">l</text>
	<text transform="matrix(1 0 0 1 -420.7207 143.6499)" font-family="'MyriadPro-Regular'" font-size="15px">_</text>
	<text transform="matrix(1 0 0 1 -413.2207 143.6499)" font-family="'MyriadPro-Regular'" font-size="15px">o</text>
	<text transform="matrix(1 0 0 1 -404.9858 143.6499)" font-family="'MyriadPro-Regular'" font-size="15px">u</text>
	<text transform="matrix(1 0 0 1 -396.7207 143.6499)" font-family="'MyriadPro-Regular'" font-size="15px">t</text>
	<text transform="matrix(1 0 0 1 -391.7559 143.6499)" font-family="'MyriadPro-Regular'" font-size="15px">p</text>
	<text transform="matrix(1 0 0 1 -383.2212 143.6499)" font-family="'MyriadPro-Regular'" font-size="15px">u</text>
	<text transform="matrix(1 0 0 1 -374.9561 143.6499)" font-family="'MyriadPro-Regular'" font-size="15px">t</text>
	<text transform="matrix(1 0 0 1 -369.9912 143.6499)" font-family="'MyriadPro-Regular'" font-size="15px">_</text>
	<text transform="matrix(1 0 0 1 -362.4912 143.6499)" font-family="'MyriadPro-Regular'" font-size="15px">e</text>
	<text transform="matrix(1 0 0 1 -355.0215 143.6499)" font-family="'MyriadPro-Regular'" font-size="15px">x</text>
	<text transform="matrix(1 0 0 1 -347.8818 143.6499)" font-family="'MyriadPro-Regular'" font-size="15px">t</text>
	<text transform="matrix(1 0 0 1 -343.0068 143.6499)" font-family="'MyriadPro-Regular'" font-size="15px">e</text>
	<text transform="matrix(1 0 0 1 -335.4922 143.6499)" font-family="'MyriadPro-Regular'" font-size="15px">n</text>
	<text transform="matrix(1 0 0 1 -327.1675 143.6499)" font-family="'MyriadPro-Regular'" font-size="15px">s</text>
	<text transform="matrix(1 0 0 1 -321.2275 143.6499)" font-family="'MyriadPro-Regular'" font-size="15px">i</text>
	<text transform="matrix(1 0 0 1 -317.7178 143.6499)" font-family="'MyriadPro-Regular'" font-size="15px">o</text>
	<text transform="matrix(1 0 0 1 -309.4829 143.6499)" font-family="'MyriadPro-Regular'" font-size="15px">n</text>
	<text transform="matrix(1 0 0 1 -301.1582 143.6499)" font-family="'MyriadPro-Regular'" font-size="15px">:</text>
	<text transform="matrix(1 0 0 1 -298.0532 143.6499)" font-family="'MyriadPro-Regular'" font-size="15px"> </text>
	<text transform="matrix(1 0 0 1 -294.8735 143.6499)" font-family="'MyriadPro-Regular'" font-size="15px">.</text>
	<text transform="matrix(1 0 0 1 -291.7686 143.6499)" font-family="'MyriadPro-Regular'" font-size="15px">h</text>
	<text transform="matrix(1 0 0 1 -283.5039 143.6499)" font-family="'MyriadPro-Regular'" font-size="15px">t</text>
	<text transform="matrix(1 0 0 1 -278.5391 143.6499)" font-family="'MyriadPro-Regular'" font-size="15px">m</text>
	<text transform="matrix(1 0 0 1 -266.0293 143.6499)" font-family="'MyriadPro-Regular'" font-size="15px">l</text>
	<text transform="matrix(1 0 0 1 -450 162.6499)" font-family="'MyriadPro-Regular'" font-size="15px">i</text>
	<text transform="matrix(1 0 0 1 -446.4902 162.6499)" font-family="'MyriadPro-Regular'" font-size="15px">m</text>
	<text transform="matrix(1 0 0 1 -433.9805 162.6499)" font-family="'MyriadPro-Regular'" font-size="15px">a</text>
	<text transform="matrix(1 0 0 1 -426.7505 162.6499)" font-family="'MyriadPro-Regular'" font-size="15px">g</text>
	<text transform="matrix(1 0 0 1 -418.3657 162.6499)" font-family="'MyriadPro-Regular'" font-size="15px">e</text>
	<text transform="matrix(1 0 0 1 -410.8511 162.6499)" font-family="'MyriadPro-Regular'" font-size="15px">_</text>
	<text transform="matrix(1 0 0 1 -403.3511 162.6499)" font-family="'MyriadPro-Regular'" font-size="15px">o</text>
	<text transform="matrix(1 0 0 1 -395.1162 162.6499)" font-family="'MyriadPro-Regular'" font-size="15px">u</text>
	<text transform="matrix(1 0 0 1 -386.8511 162.6499)" font-family="'MyriadPro-Regular'" font-size="15px">t</text>
	<text transform="matrix(1 0 0 1 -381.8862 162.6499)" font-family="'MyriadPro-Regular'" font-size="15px">p</text>
	<text transform="matrix(1 0 0 1 -373.3516 162.6499)" font-family="'MyriadPro-Regular'" font-size="15px">u</text>
	<text transform="matrix(1 0 0 1 -365.0864 162.6499)" font-family="'MyriadPro-Regular'" font-size="15px">t</text>
	<text transform="matrix(1 0 0 1 -360.1216 162.6499)" font-family="'MyriadPro-Regular'" font-size="15px">_</text>
	<text transform="matrix(1 0 0 1 -352.6216 162.6499)" font-family="'MyriadPro-Regular'" font-size="15px">p</text>
	<text transform="matrix(1 0 0 1 -344.0869 162.6499)" font-family="'MyriadPro-Regular'" font-size="15px">a</text>
	<text transform="matrix(1 0 0 1 -336.917 162.6499)" font-family="'MyriadPro-Regular'" font-size="15px">t</text>
	<text transform="matrix(1 0 0 1 -331.9521 162.6499)" font-family="'MyriadPro-Regular'" font-size="15px">h</text>
	<text transform="matrix(1 0 0 1 -323.6274 162.6499)" font-family="'MyriadPro-Regular'" font-size="15px">:</text>
	<text transform="matrix(1 0 0 1 -320.5225 162.6499)" font-family="'MyriadPro-Regular'" font-size="15px"> </text>
	<text transform="matrix(1 0 0 1 -450 181.6499)" font-family="'MyriadPro-Regular'" font-size="15px">l</text>
	<text transform="matrix(1 0 0 1 -446.46 181.6499)" font-family="'MyriadPro-Regular'" font-size="15px">o</text>
	<text transform="matrix(1 0 0 1 -438.2251 181.6499)" font-family="'MyriadPro-Regular'" font-size="15px">c</text>
	<text transform="matrix(1 0 0 1 -431.5049 181.6499)" font-family="'MyriadPro-Regular'" font-size="15px">a</text>
	<text transform="matrix(1 0 0 1 -424.2749 181.6499)" font-family="'MyriadPro-Regular'" font-size="15px">l</text>
	<text transform="matrix(1 0 0 1 -420.7349 181.6499)" font-family="'MyriadPro-Regular'" font-size="15px">_</text>
	<text transform="matrix(1 0 0 1 -413.2349 181.6499)" font-family="'MyriadPro-Regular'" font-size="15px">p</text>
	<text transform="matrix(1 0 0 1 -404.7002 181.6499)" font-family="'MyriadPro-Regular'" font-size="15px">r</text>
	<text transform="matrix(1 0 0 1 -399.9453 181.6499)" font-family="'MyriadPro-Regular'" font-size="15px">e</text>
	<text transform="matrix(1 0 0 1 -392.4307 181.6499)" font-family="'MyriadPro-Regular'" font-size="15px">v</text>
	<text transform="matrix(1 0 0 1 -385.2158 181.6499)" font-family="'MyriadPro-Regular'" font-size="15px">i</text>
	<text transform="matrix(1 0 0 1 -381.7061 181.6499)" font-family="'MyriadPro-Regular'" font-size="15px">e</text>
	<text transform="matrix(1 0 0 1 -374.1914 181.6499)" font-family="'MyriadPro-Regular'" font-size="15px">w</text>
	<text transform="matrix(1 0 0 1 -363.1514 181.6499)" font-family="'MyriadPro-Regular'" font-size="15px">_</text>
	<text transform="matrix(1 0 0 1 -355.6514 181.6499)" font-family="'MyriadPro-Regular'" font-size="15px">t</text>
	<text transform="matrix(1 0 0 1 -350.7764 181.6499)" font-family="'MyriadPro-Regular'" font-size="15px">e</text>
	<text transform="matrix(1 0 0 1 -343.2617 181.6499)" font-family="'MyriadPro-Regular'" font-size="15px">m</text>
	<text transform="matrix(1 0 0 1 -330.752 181.6499)" font-family="'MyriadPro-Regular'" font-size="15px">p</text>
	<text transform="matrix(1 0 0 1 -322.2173 181.6499)" font-family="'MyriadPro-Regular'" font-size="15px">l</text>
	<text transform="matrix(1 0 0 1 -318.6772 181.6499)" font-family="'MyriadPro-Regular'" font-size="15px">a</text>
	<text transform="matrix(1 0 0 1 -311.5073 181.6499)" font-family="'MyriadPro-Regular'" font-size="15px">t</text>
	<text transform="matrix(1 0 0 1 -306.6323 181.6499)" font-family="'MyriadPro-Regular'" font-size="15px">e</text>
	<text transform="matrix(1 0 0 1 -299.1177 181.6499)" font-family="'MyriadPro-Regular'" font-size="15px">:</text>
	<text transform="matrix(1 0 0 1 -296.0127 181.6499)" font-family="'MyriadPro-Regular'" font-size="15px"> </text>
	<text transform="matrix(1 0 0 1 -450 200.6499)" font-family="'MyriadPro-Regular'" font-size="15px">p</text>
	<text transform="matrix(1 0 0 1 -441.4653 200.6499)" font-family="'MyriadPro-Regular'" font-size="15px">n</text>
	<text transform="matrix(1 0 0 1 -433.1406 200.6499)" font-family="'MyriadPro-Regular'" font-size="15px">g</text>
	<text transform="matrix(1 0 0 1 -424.7559 200.6499)" font-family="'MyriadPro-Regular'" font-size="15px">_</text>
	<text transform="matrix(1 0 0 1 -417.2559 200.6499)" font-family="'MyriadPro-Regular'" font-size="15px">n</text>
	<text transform="matrix(1 0 0 1 -408.9312 200.6499)" font-family="'MyriadPro-Regular'" font-size="15px">u</text>
	<text transform="matrix(1 0 0 1 -400.666 200.6499)" font-family="'MyriadPro-Regular'" font-size="15px">m</text>
	<text transform="matrix(1 0 0 1 -388.1562 200.6499)" font-family="'MyriadPro-Regular'" font-size="15px">b</text>
	<text transform="matrix(1 0 0 1 -379.6216 200.6499)" font-family="'MyriadPro-Regular'" font-size="15px">e</text>
	<text transform="matrix(1 0 0 1 -372.1069 200.6499)" font-family="'MyriadPro-Regular'" font-size="15px">r</text>
	<text transform="matrix(1 0 0 1 -367.2021 200.6499)" font-family="'MyriadPro-Regular'" font-size="15px">_</text>
	<text transform="matrix(1 0 0 1 -359.7021 200.6499)" font-family="'MyriadPro-Regular'" font-size="15px">o</text>
	<text transform="matrix(1 0 0 1 -351.4673 200.6499)" font-family="'MyriadPro-Regular'" font-size="15px">f</text>
	<text transform="matrix(1 0 0 1 -347.0874 200.6499)" font-family="'MyriadPro-Regular'" font-size="15px">_</text>
	<text transform="matrix(1 0 0 1 -339.5874 200.6499)" font-family="'MyriadPro-Regular'" font-size="15px">c</text>
	<text transform="matrix(1 0 0 1 -332.957 200.6499)" font-family="'MyriadPro-Regular'" font-size="15px">o</text>
	<text transform="matrix(1 0 0 1 -324.7222 200.6499)" font-family="'MyriadPro-Regular'" font-size="15px">l</text>
	<text transform="matrix(1 0 0 1 -321.1821 200.6499)" font-family="'MyriadPro-Regular'" font-size="15px">o</text>
	<text transform="matrix(1 0 0 1 -312.9473 200.6499)" font-family="'MyriadPro-Regular'" font-size="15px">r</text>
	<text transform="matrix(1 0 0 1 -308.0425 200.6499)" font-family="'MyriadPro-Regular'" font-size="15px">s</text>
	<text transform="matrix(1 0 0 1 -302.1025 200.6499)" font-family="'MyriadPro-Regular'" font-size="15px">:</text>
	<text transform="matrix(1 0 0 1 -298.9976 200.6499)" font-family="'MyriadPro-Regular'" font-size="15px"> </text>
	<text transform="matrix(1 0 0 1 -295.8179 200.6499)" font-family="'MyriadPro-Regular'" font-size="15px">1</text>
	<text transform="matrix(1 0 0 1 -288.123 200.6499)" font-family="'MyriadPro-Regular'" font-size="15px">2</text>
	<text transform="matrix(1 0 0 1 -280.4282 200.6499)" font-family="'MyriadPro-Regular'" font-size="15px">8</text>
	<text transform="matrix(1 0 0 1 -450 219.6499)" font-family="'MyriadPro-Regular'" font-size="15px">j</text>
	<text transform="matrix(1 0 0 1 -446.355 219.6499)" font-family="'MyriadPro-Regular'" font-size="15px">p</text>
	<text transform="matrix(1 0 0 1 -437.8203 219.6499)" font-family="'MyriadPro-Regular'" font-size="15px">g</text>
	<text transform="matrix(1 0 0 1 -429.4355 219.6499)" font-family="'MyriadPro-Regular'" font-size="15px">_</text>
	<text transform="matrix(1 0 0 1 -421.9355 219.6499)" font-family="'MyriadPro-Regular'" font-size="15px">q</text>
	<text transform="matrix(1 0 0 1 -413.4907 219.6499)" font-family="'MyriadPro-Regular'" font-size="15px">u</text>
	<text transform="matrix(1 0 0 1 -405.2256 219.6499)" font-family="'MyriadPro-Regular'" font-size="15px">a</text>
	<text transform="matrix(1 0 0 1 -397.9956 219.6499)" font-family="'MyriadPro-Regular'" font-size="15px">l</text>
	<text transform="matrix(1 0 0 1 -394.4556 219.6499)" font-family="'MyriadPro-Regular'" font-size="15px">i</text>
	<text transform="matrix(1 0 0 1 -390.9458 219.6499)" font-family="'MyriadPro-Regular'" font-size="15px">t</text>
	<text transform="matrix(1 0 0 1 -385.8462 219.6499)" font-family="'MyriadPro-Regular'" font-size="15px">y</text>
	<text transform="matrix(1 0 0 1 -378.4214 219.6499)" font-family="'MyriadPro-Regular'" font-size="15px">:</text>
	<text transform="matrix(1 0 0 1 -375.3164 219.6499)" font-family="'MyriadPro-Regular'" font-size="15px"> </text>
	<text transform="matrix(1 0 0 1 -372.1367 219.6499)" font-family="'MyriadPro-Regular'" font-size="15px">6</text>
	<text transform="matrix(1 0 0 1 -364.4419 219.6499)" font-family="'MyriadPro-Regular'" font-size="15px">0</text>
	<text transform="matrix(1 0 0 1 -450 238.6494)" font-family="'MyriadPro-Regular'" font-size="15px">h</text>
	<text transform="matrix(1 0 0 1 -441.6753 238.6494)" font-family="'MyriadPro-Regular'" font-size="15px">e</text>
	<text transform="matrix(1 0 0 1 -434.1606 238.6494)" font-family="'MyriadPro-Regular'" font-size="15px">a</text>
	<text transform="matrix(1 0 0 1 -426.9307 238.6494)" font-family="'MyriadPro-Regular'" font-size="15px">d</text>
	<text transform="matrix(1 0 0 1 -418.4707 238.6494)" font-family="'MyriadPro-Regular'" font-size="15px">l</text>
	<text transform="matrix(1 0 0 1 -414.9307 238.6494)" font-family="'MyriadPro-Regular'" font-size="15px">i</text>
	<text transform="matrix(1 0 0 1 -411.4209 238.6494)" font-family="'MyriadPro-Regular'" font-size="15px">n</text>
	<text transform="matrix(1 0 0 1 -403.0962 238.6494)" font-family="'MyriadPro-Regular'" font-size="15px">e</text>
	<text transform="matrix(1 0 0 1 -395.5815 238.6494)" font-family="'MyriadPro-Regular'" font-size="15px">:</text>
	<text transform="matrix(1 0 0 1 -392.4766 238.6494)" font-family="'MyriadPro-Regular'" font-size="15px"> </text>
	<text transform="matrix(1 0 0 1 -450 257.6494)" font-family="'MyriadPro-Regular'" font-size="15px">l</text>
	<text transform="matrix(1 0 0 1 -446.46 257.6494)" font-family="'MyriadPro-Regular'" font-size="15px">e</text>
	<text transform="matrix(1 0 0 1 -438.9453 257.6494)" font-family="'MyriadPro-Regular'" font-size="15px">a</text>
	<text transform="matrix(1 0 0 1 -431.7153 257.6494)" font-family="'MyriadPro-Regular'" font-size="15px">d</text>
	<text transform="matrix(1 0 0 1 -423.2554 257.6494)" font-family="'MyriadPro-Regular'" font-size="15px">i</text>
	<text transform="matrix(1 0 0 1 -419.7456 257.6494)" font-family="'MyriadPro-Regular'" font-size="15px">n</text>
	<text transform="matrix(1 0 0 1 -411.4209 257.6494)" font-family="'MyriadPro-Regular'" font-size="15px">:</text>
	<text transform="matrix(1 0 0 1 -408.3159 257.6494)" font-family="'MyriadPro-Regular'" font-size="15px"> </text>
	<text transform="matrix(1 0 0 1 -450 276.6494)" font-family="'MyriadPro-Regular'" font-size="15px">n</text>
	<text transform="matrix(1 0 0 1 -441.6753 276.6494)" font-family="'MyriadPro-Regular'" font-size="15px">o</text>
	<text transform="matrix(1 0 0 1 -433.4404 276.6494)" font-family="'MyriadPro-Regular'" font-size="15px">t</text>
	<text transform="matrix(1 0 0 1 -428.5654 276.6494)" font-family="'MyriadPro-Regular'" font-size="15px">e</text>
	<text transform="matrix(1 0 0 1 -421.0508 276.6494)" font-family="'MyriadPro-Regular'" font-size="15px">s</text>
	<text transform="matrix(1 0 0 1 -415.1108 276.6494)" font-family="'MyriadPro-Regular'" font-size="15px">:</text>
	<text transform="matrix(1 0 0 1 -412.0059 276.6494)" font-family="'MyriadPro-Regular'" font-size="15px"> </text>
	<text transform="matrix(1 0 0 1 -450 295.6494)" font-family="'MyriadPro-Regular'" font-size="15px">s</text>
	<text transform="matrix(1 0 0 1 -444.0601 295.6494)" font-family="'MyriadPro-Regular'" font-size="15px">o</text>
	<text transform="matrix(1 0 0 1 -435.8252 295.6494)" font-family="'MyriadPro-Regular'" font-size="15px">u</text>
	<text transform="matrix(1 0 0 1 -427.5601 295.6494)" font-family="'MyriadPro-Regular'" font-size="15px">r</text>
	<text transform="matrix(1 0 0 1 -422.8052 295.6494)" font-family="'MyriadPro-Regular'" font-size="15px">c</text>
	<text transform="matrix(1 0 0 1 -416.1753 295.6494)" font-family="'MyriadPro-Regular'" font-size="15px">e</text>
	<text transform="matrix(1 0 0 1 -408.6606 295.6494)" font-family="'MyriadPro-Regular'" font-size="15px">s</text>
	<text transform="matrix(1 0 0 1 -402.7207 295.6494)" font-family="'MyriadPro-Regular'" font-size="15px">:</text>
	<text transform="matrix(1 0 0 1 -399.6157 295.6494)" font-family="'MyriadPro-Regular'" font-size="15px"> </text>
	<text transform="matrix(1 0 0 1 -450 314.6494)" font-family="'MyriadPro-Regular'" font-size="15px">c</text>
	<text transform="matrix(1 0 0 1 -443.2803 314.6494)" font-family="'MyriadPro-Regular'" font-size="15px">r</text>
	<text transform="matrix(1 0 0 1 -438.5254 314.6494)" font-family="'MyriadPro-Regular'" font-size="15px">e</text>
	<text transform="matrix(1 0 0 1 -431.0107 314.6494)" font-family="'MyriadPro-Regular'" font-size="15px">d</text>
	<text transform="matrix(1 0 0 1 -422.5508 314.6494)" font-family="'MyriadPro-Regular'" font-size="15px">i</text>
	<text transform="matrix(1 0 0 1 -419.041 314.6494)" font-family="'MyriadPro-Regular'" font-size="15px">t</text>
	<text transform="matrix(1 0 0 1 -414.0762 314.6494)" font-family="'MyriadPro-Regular'" font-size="15px">:</text>
	<text transform="matrix(1 0 0 1 -410.9712 314.6494)" font-family="'MyriadPro-Regular'" font-size="15px"> </text>
</g>
</svg>
